# This file uses centimeters as units for non-parametric coordinates.

mtllib standsblueglow.mtl
g default
v -26.549011 -0.756113 -12.009302
v 26.549011 -0.756113 -12.009302
v 26.549011 -0.443813 -12.259176
v -26.549011 -0.443813 -12.259176
v -26.549011 -0.500000 -12.209282
v 26.549011 -0.500000 -12.209282
v -26.549011 0.455858 -16.260139
v 26.549011 0.455858 -16.260139
v 26.549011 0.500000 -16.657658
v -26.549011 0.500000 -16.657658
v -26.549011 0.300020 -16.456448
v 26.549011 0.300020 -16.456448
v -26.549011 3.667595 -25.238300
v 26.549011 3.667595 -25.238300
v 26.549011 3.792312 -25.618319
v -26.549011 3.792312 -25.618319
v -26.549011 3.592332 -25.407845
v 26.549011 3.592332 -25.407845
v -26.549011 6.959907 -34.189693
v 26.549011 6.959907 -34.189693
v 26.549011 7.084623 -34.569714
v -26.549011 7.084623 -34.569714
v -26.549011 6.884644 -34.359238
v 26.549011 6.884644 -34.359238
v -26.549011 10.252219 -43.141094
v 26.549011 10.252219 -43.141094
v 26.549011 10.376935 -43.521114
v -26.549011 10.376935 -43.521114
v -26.549011 10.176955 -43.310638
v 26.549011 10.176955 -43.310638
v -26.549011 13.544530 -52.092484
v 26.549011 13.544530 -52.092484
v 26.549011 13.669247 -52.472511
v -26.549011 13.669247 -52.472511
v -26.549011 13.469267 -52.262024
v 26.549011 13.469267 -52.262024
vt 0.697879 0.237271
vt 0.697879 0.236184
vt 0.800631 0.236184
vt 0.800631 0.237271
vt 0.697879 0.236198
vt 0.572645 0.405068
vt 0.572544 0.405302
vt 0.572101 0.405360
vt 0.727962 0.621381
vt 0.727962 0.620993
vt 0.740957 0.620993
vt 0.740957 0.621381
vt 0.727962 0.620993
vt 0.740957 0.620993
vt 0.753162 0.621399
vt 0.753162 0.620993
vt 0.766157 0.620993
vt 0.766157 0.621399
vt 0.537179 0.036643
vt 0.538163 0.037008
vt 0.536585 0.036806
vt 0.539673 0.420548
vt 0.540266 0.420746
vt 0.538689 0.420993
vt 0.677563 0.621399
vt 0.677563 0.620993
vt 0.690557 0.620993
vt 0.690557 0.621399
vt 0.563147 0.045253
vt 0.564131 0.045618
vt 0.562553 0.045416
vt 0.513705 0.431023
vt 0.514298 0.431221
vt 0.512721 0.431467
vt 0.702763 0.621399
vt 0.702763 0.620993
vt 0.715757 0.620993
vt 0.715757 0.621399
vt 0.589115 0.053863
vt 0.590098 0.054229
vt 0.588521 0.054026
vt 0.487737 0.441497
vt 0.488331 0.441696
vt 0.486753 0.441942
vt 0.431618 0.223196
vt 0.431618 0.224818
vt 0.362564 0.224818
vt 0.362564 0.223196
vt 0.616067 0.062838
vt 0.614489 0.062636
vt 0.615083 0.062473
vt 0.460785 0.452417
vt 0.461769 0.451972
vt 0.462362 0.452170
vn 0.000002 0.624747 0.780827
vn 0.000001 0.624747 0.780827
vn -0.000002 0.624747 0.780827
vn -0.000001 0.624747 0.780827
vn 1.000000 0.000000 0.000000
vn -1.000000 0.000000 0.000000
vn -0.001422 0.993890 0.110366
vn -0.001654 0.993890 0.110366
vn 0.001422 0.993890 0.110366
vn 0.001654 0.993890 0.110366
vn -1.000000 0.000000 0.000000
vn 1.000000 0.000000 0.000000
vn -0.000660 0.950141 0.311821
vn -0.001096 0.950140 0.311821
vn 0.000660 0.950140 0.311822
vn 0.001096 0.950140 0.311822
vn -1.000000 -0.000019 0.000000
vn 1.000000 -0.000038 0.000000
vn -0.000660 0.950142 0.311818
vn -0.001096 0.950141 0.311818
vn 0.000660 0.950141 0.311821
vn 0.001096 0.950140 0.311820
vn -1.000000 0.000000 0.000000
vn 1.000000 0.000000 0.000000
vn -0.000660 0.950141 0.311821
vn -0.001096 0.950140 0.311820
vn 0.000660 0.950141 0.311821
vn 0.001096 0.950140 0.311820
vn -1.000000 0.000000 0.000000
vn 1.000000 0.000000 0.000000
vn -0.000660 0.950143 0.311815
vn -0.001096 0.950142 0.311815
vn 0.000660 0.950143 0.311815
vn 0.001096 0.950142 0.311815
vn -1.000000 0.000000 0.000000
vn 1.000000 0.000019 0.000000
s 1
g standsblueglow
usemtl BlueGlowSG
f 4/1/1 1/2/2 3/4/3
f 3/4/3 1/2/2 2/3/4
f 1/2/2 4/1/1 5/5/5
f 2/6/4 6/7/6 3/8/3
s 2
f 10/9/7 7/10/8 9/12/9
f 9/12/9 7/10/8 8/11/10
f 7/10/8 10/9/7 11/13/11
f 8/11/10 12/14/12 9/12/9
s 3
f 16/15/13 13/16/14 15/18/15
f 15/18/15 13/16/14 14/17/16
f 13/19/14 16/20/13 17/21/17
f 14/22/16 18/23/18 15/24/15
s 4
f 22/25/19 19/26/20 21/28/21
f 21/28/21 19/26/20 20/27/22
f 19/29/20 22/30/19 23/31/23
f 20/32/22 24/33/24 21/34/21
s 5
f 28/35/25 25/36/26 27/38/27
f 27/38/27 25/36/26 26/37/28
f 25/39/26 28/40/25 29/41/29
f 26/42/28 30/43/30 27/44/27
s 6
f 34/45/31 31/46/32 33/48/33
f 33/48/33 31/46/32 32/47/34
f 34/49/31 35/50/35 31/51/32
f 33/52/33 32/53/34 36/54/36
g default
v -26.549011 -0.756113 -12.009302
v 26.549011 -0.756113 -12.009302
v 26.549011 -0.443813 -12.259176
v -26.549011 -0.443813 -12.259176
v -26.549011 -0.500000 -12.209282
v 26.549011 -0.500000 -12.209282
v -26.549011 0.455858 -16.260139
v 26.549011 0.455858 -16.260139
v 26.549011 0.500000 -16.657658
v -26.549011 0.500000 -16.657658
v -26.549011 0.300020 -16.456448
v 26.549011 0.300020 -16.456448
v -26.549011 3.667595 -25.238300
v 26.549011 3.667595 -25.238300
v 26.549011 3.792312 -25.618319
v -26.549011 3.792312 -25.618319
v -26.549011 3.592332 -25.407845
v 26.549011 3.592332 -25.407845
v -26.549011 6.959907 -34.189693
v 26.549011 6.959907 -34.189693
v 26.549011 7.084623 -34.569714
v -26.549011 7.084623 -34.569714
v -26.549011 6.884644 -34.359238
v 26.549011 6.884644 -34.359238
v -26.549011 10.252219 -43.141094
v 26.549011 10.252219 -43.141094
v 26.549011 10.376935 -43.521114
v -26.549011 10.376935 -43.521114
v -26.549011 10.176955 -43.310638
v 26.549011 10.176955 -43.310638
v -26.549011 13.544530 -52.092484
v 26.549011 13.544530 -52.092484
v 26.549011 13.669247 -52.472511
v -26.549011 13.669247 -52.472511
v -26.549011 13.469267 -52.262024
v 26.549011 13.469267 -52.262024
vt 0.697879 0.237271
vt 0.697879 0.236184
vt 0.800631 0.236184
vt 0.800631 0.237271
vt 0.697879 0.236198
vt 0.572645 0.405068
vt 0.572544 0.405302
vt 0.572101 0.405360
vt 0.727962 0.621381
vt 0.727962 0.620993
vt 0.740957 0.620993
vt 0.740957 0.621381
vt 0.727962 0.620993
vt 0.740957 0.620993
vt 0.753162 0.621399
vt 0.753162 0.620993
vt 0.766157 0.620993
vt 0.766157 0.621399
vt 0.537179 0.036643
vt 0.538163 0.037008
vt 0.536585 0.036806
vt 0.539673 0.420548
vt 0.540266 0.420746
vt 0.538689 0.420993
vt 0.677563 0.621399
vt 0.677563 0.620993
vt 0.690557 0.620993
vt 0.690557 0.621399
vt 0.563147 0.045253
vt 0.564131 0.045618
vt 0.562553 0.045416
vt 0.513705 0.431023
vt 0.514298 0.431221
vt 0.512721 0.431467
vt 0.702763 0.621399
vt 0.702763 0.620993
vt 0.715757 0.620993
vt 0.715757 0.621399
vt 0.589115 0.053863
vt 0.590098 0.054229
vt 0.588521 0.054026
vt 0.487737 0.441497
vt 0.488331 0.441696
vt 0.486753 0.441942
vt 0.431618 0.223196
vt 0.431618 0.224818
vt 0.362564 0.224818
vt 0.362564 0.223196
vt 0.616067 0.062838
vt 0.614489 0.062636
vt 0.615083 0.062473
vt 0.460785 0.452417
vt 0.461769 0.451972
vt 0.462362 0.452170
vn 0.000002 0.624747 0.780827
vn 0.000001 0.624747 0.780827
vn -0.000002 0.624747 0.780827
vn -0.000001 0.624747 0.780827
vn 1.000000 0.000000 0.000000
vn -1.000000 0.000000 0.000000
vn -0.001422 0.993890 0.110366
vn -0.001654 0.993890 0.110366
vn 0.001422 0.993890 0.110366
vn 0.001654 0.993890 0.110366
vn -1.000000 0.000000 0.000000
vn 1.000000 0.000000 0.000000
vn -0.000660 0.950141 0.311821
vn -0.001096 0.950140 0.311821
vn 0.000660 0.950140 0.311822
vn 0.001096 0.950140 0.311822
vn -1.000000 -0.000019 0.000000
vn 1.000000 -0.000038 0.000000
vn -0.000660 0.950142 0.311818
vn -0.001096 0.950141 0.311818
vn 0.000660 0.950141 0.311821
vn 0.001096 0.950140 0.311820
vn -1.000000 0.000000 0.000000
vn 1.000000 0.000000 0.000000
vn -0.000660 0.950141 0.311821
vn -0.001096 0.950140 0.311820
vn 0.000660 0.950141 0.311821
vn 0.001096 0.950140 0.311820
vn -1.000000 0.000000 0.000000
vn 1.000000 0.000000 0.000000
vn -0.000660 0.950143 0.311815
vn -0.001096 0.950142 0.311815
vn 0.000660 0.950143 0.311815
vn 0.001096 0.950142 0.311815
vn -1.000000 0.000000 0.000000
vn 1.000000 0.000019 0.000000
s 1
g standsblueglow
f 40/55/37 37/56/38 39/58/39
f 39/58/39 37/56/38 38/57/40
f 37/56/38 40/55/37 41/59/41
f 38/60/40 42/61/42 39/62/39
s 2
f 46/63/43 43/64/44 45/66/45
f 45/66/45 43/64/44 44/65/46
f 43/64/44 46/63/43 47/67/47
f 44/65/46 48/68/48 45/66/45
s 3
f 52/69/49 49/70/50 51/72/51
f 51/72/51 49/70/50 50/71/52
f 49/73/50 52/74/49 53/75/53
f 50/76/52 54/77/54 51/78/51
s 4
f 58/79/55 55/80/56 57/82/57
f 57/82/57 55/80/56 56/81/58
f 55/83/56 58/84/55 59/85/59
f 56/86/58 60/87/60 57/88/57
s 5
f 64/89/61 61/90/62 63/92/63
f 63/92/63 61/90/62 62/91/64
f 61/93/62 64/94/61 65/95/65
f 62/96/64 66/97/66 63/98/63
s 6
f 70/99/67 67/100/68 69/102/69
f 69/102/69 67/100/68 68/101/70
f 70/103/67 71/104/71 67/105/68
f 69/106/69 68/107/70 72/108/72
g default
v -26.549011 -0.756113 -12.009302
v 26.549011 -0.756113 -12.009302
v 26.549011 -0.443813 -12.259176
v -26.549011 -0.443813 -12.259176
v -26.549011 -0.500000 -12.209282
v 26.549011 -0.500000 -12.209282
v -26.549011 0.455858 -16.260139
v 26.549011 0.455858 -16.260139
v 26.549011 0.500000 -16.657658
v -26.549011 0.500000 -16.657658
v -26.549011 0.300020 -16.456448
v 26.549011 0.300020 -16.456448
v -26.549011 3.667595 -25.238300
v 26.549011 3.667595 -25.238300
v 26.549011 3.792312 -25.618319
v -26.549011 3.792312 -25.618319
v -26.549011 3.592332 -25.407845
v 26.549011 3.592332 -25.407845
v -26.549011 6.959907 -34.189693
v 26.549011 6.959907 -34.189693
v 26.549011 7.084623 -34.569714
v -26.549011 7.084623 -34.569714
v -26.549011 6.884644 -34.359238
v 26.549011 6.884644 -34.359238
v -26.549011 10.252219 -43.141094
v 26.549011 10.252219 -43.141094
v 26.549011 10.376935 -43.521114
v -26.549011 10.376935 -43.521114
v -26.549011 10.176955 -43.310638
v 26.549011 10.176955 -43.310638
v -26.549011 13.544530 -52.092484
v 26.549011 13.544530 -52.092484
v 26.549011 13.669247 -52.472511
v -26.549011 13.669247 -52.472511
v -26.549011 13.469267 -52.262024
v 26.549011 13.469267 -52.262024
vt 0.697879 0.237271
vt 0.697879 0.236184
vt 0.800631 0.236184
vt 0.800631 0.237271
vt 0.697879 0.236198
vt 0.572645 0.405068
vt 0.572544 0.405302
vt 0.572101 0.405360
vt 0.727962 0.621381
vt 0.727962 0.620993
vt 0.740957 0.620993
vt 0.740957 0.621381
vt 0.727962 0.620993
vt 0.740957 0.620993
vt 0.753162 0.621399
vt 0.753162 0.620993
vt 0.766157 0.620993
vt 0.766157 0.621399
vt 0.537179 0.036643
vt 0.538163 0.037008
vt 0.536585 0.036806
vt 0.539673 0.420548
vt 0.540266 0.420746
vt 0.538689 0.420993
vt 0.677563 0.621399
vt 0.677563 0.620993
vt 0.690557 0.620993
vt 0.690557 0.621399
vt 0.563147 0.045253
vt 0.564131 0.045618
vt 0.562553 0.045416
vt 0.513705 0.431023
vt 0.514298 0.431221
vt 0.512721 0.431467
vt 0.702763 0.621399
vt 0.702763 0.620993
vt 0.715757 0.620993
vt 0.715757 0.621399
vt 0.589115 0.053863
vt 0.590098 0.054229
vt 0.588521 0.054026
vt 0.487737 0.441497
vt 0.488331 0.441696
vt 0.486753 0.441942
vt 0.431618 0.223196
vt 0.431618 0.224818
vt 0.362564 0.224818
vt 0.362564 0.223196
vt 0.616067 0.062838
vt 0.614489 0.062636
vt 0.615083 0.062473
vt 0.460785 0.452417
vt 0.461769 0.451972
vt 0.462362 0.452170
vn 0.000002 0.624747 0.780827
vn 0.000001 0.624747 0.780827
vn -0.000002 0.624747 0.780827
vn -0.000001 0.624747 0.780827
vn 1.000000 0.000000 0.000000
vn -1.000000 0.000000 0.000000
vn -0.001422 0.993890 0.110366
vn -0.001654 0.993890 0.110366
vn 0.001422 0.993890 0.110366
vn 0.001654 0.993890 0.110366
vn -1.000000 0.000000 0.000000
vn 1.000000 0.000000 0.000000
vn -0.000660 0.950141 0.311821
vn -0.001096 0.950140 0.311821
vn 0.000660 0.950140 0.311822
vn 0.001096 0.950140 0.311822
vn -1.000000 -0.000019 0.000000
vn 1.000000 -0.000038 0.000000
vn -0.000660 0.950142 0.311818
vn -0.001096 0.950141 0.311818
vn 0.000660 0.950141 0.311821
vn 0.001096 0.950140 0.311820
vn -1.000000 0.000000 0.000000
vn 1.000000 0.000000 0.000000
vn -0.000660 0.950141 0.311821
vn -0.001096 0.950140 0.311820
vn 0.000660 0.950141 0.311821
vn 0.001096 0.950140 0.311820
vn -1.000000 0.000000 0.000000
vn 1.000000 0.000000 0.000000
vn -0.000660 0.950143 0.311815
vn -0.001096 0.950142 0.311815
vn 0.000660 0.950143 0.311815
vn 0.001096 0.950142 0.311815
vn -1.000000 0.000000 0.000000
vn 1.000000 0.000019 0.000000
s 1
g standsblueglow
f 76/109/73 73/110/74 75/112/75
f 75/112/75 73/110/74 74/111/76
f 73/110/74 76/109/73 77/113/77
f 74/114/76 78/115/78 75/116/75
s 2
f 82/117/79 79/118/80 81/120/81
f 81/120/81 79/118/80 80/119/82
f 79/118/80 82/117/79 83/121/83
f 80/119/82 84/122/84 81/120/81
s 3
f 88/123/85 85/124/86 87/126/87
f 87/126/87 85/124/86 86/125/88
f 85/127/86 88/128/85 89/129/89
f 86/130/88 90/131/90 87/132/87
s 4
f 94/133/91 91/134/92 93/136/93
f 93/136/93 91/134/92 92/135/94
f 91/137/92 94/138/91 95/139/95
f 92/140/94 96/141/96 93/142/93
s 5
f 100/143/97 97/144/98 99/146/99
f 99/146/99 97/144/98 98/145/100
f 97/147/98 100/148/97 101/149/101
f 98/150/100 102/151/102 99/152/99
s 6
f 106/153/103 103/154/104 105/156/105
f 105/156/105 103/154/104 104/155/106
f 106/157/103 107/158/107 103/159/104
f 105/160/105 104/161/106 108/162/108
